<svg version="1.1" xmlns="http://www.w3.org/2000/svg" viewBox="0 0 268.0373479194343 268.0373479194343" width="268.0373479194343" height="268.0373479194343">
  <!-- svg-source:excalidraw -->
  
  <defs>
    <style class="style-fonts">
      @font-face {
        font-family: "Virgil";
        src: url("https://excalidraw.com/Virgil.woff2");
      }
      @font-face {
        font-family: "Cascadia";
        src: url("https://excalidraw.com/Cascadia.woff2");
      }
      @font-face {
        font-family: "Assistant";
        src: url("https://excalidraw.com/Assistant-Regular.woff2");
      }
    </style>
    
  </defs>
  <rect x="0" y="0" width="268.0373479194343" height="268.0373479194343" fill="#ffffff"></rect><g stroke-linecap="round" transform="translate(10 10) rotate(0 124.01867395971715 124.01867395971715)"><path d="M32 0 C89.17 0.74, 151.95 0.93, 216.04 0 C236.15 -0.18, 251.03 9.56, 248.04 32 C247.08 88.95, 247.19 156.48, 248.04 216.04 C244.86 238.18, 238.31 246, 216.04 248.04 C157.11 252.81, 96.49 252.54, 32 248.04 C13.92 245.51, 3.38 235.81, 0 216.04 C-5.12 173.27, -5.06 123.68, 0 32 C-1.8 11.25, 9.4 1.89, 32 0" stroke="none" stroke-width="0" fill="#ffd43b"></path><path d="M32 0 C97.12 -1.25, 163.75 -2.38, 216.04 0 M32 0 C75.12 0.06, 119.52 -0.49, 216.04 0 M216.04 0 C237.25 0.79, 248.49 9.37, 248.04 32 M216.04 0 C239.58 -0.82, 249.53 8.98, 248.04 32 M248.04 32 C249.08 71.23, 247.75 111.41, 248.04 216.04 M248.04 32 C246.75 74.54, 248.54 116.25, 248.04 216.04 M248.04 216.04 C246.53 237.96, 239.07 247.78, 216.04 248.04 M248.04 216.04 C248.67 235.78, 237.44 250.02, 216.04 248.04 M216.04 248.04 C164.75 246.87, 114.2 248.72, 32 248.04 M216.04 248.04 C144.25 245.69, 69.7 247.59, 32 248.04 M32 248.04 C12.63 248.59, -1.92 238.01, 0 216.04 M32 248.04 C10.47 249.29, 0.08 237.53, 0 216.04 M0 216.04 C1.24 166.37, 0.01 116.4, 0 32 M0 216.04 C0.75 177.95, 1.61 138.66, 0 32 M0 32 C-0.6 9.35, 8.86 -1.81, 32 0 M0 32 C-0.22 12.23, 9.22 -0.79, 32 0" stroke="transparent" stroke-width="4" fill="none"></path></g><g stroke-linecap="round"><g transform="translate(82.20350390676322 92.6981665044552) rotate(0 55.7671888285243 45.6734181218509)"><path d="M0.19 -0.3 C4.5 -0.96, 28.09 -8.44, 26.89 -4.59 C25.69 -0.74, -10.25 20.48, -7.01 22.81 C-3.77 25.13, 46.6 6.14, 46.34 9.38 C46.07 12.62, -9.21 39.89, -8.6 42.27 C-7.99 44.65, 49.26 20.49, 49.99 23.65 C50.72 26.8, -15.09 63.18, -4.23 61.21 C6.62 59.23, 104.27 17.84, 115.1 11.79 C125.93 5.74, 62.96 27.42, 60.74 24.89 C58.52 22.36, 98.38 0.99, 101.76 -3.39 C105.14 -7.78, 77.9 -6.03, 81.02 -1.42 C84.13 3.19, 132.1 13, 120.44 24.26 C108.79 35.52, 12.08 62.66, 11.09 66.12 C10.09 69.58, 112.01 42.52, 114.48 45.02 C116.95 47.52, 29.83 76.63, 25.88 81.13 C21.92 85.63, 87.33 70.01, 90.77 72.01 C94.21 74.01, 50.32 89.29, 46.54 93.13 C42.76 96.96, 64.61 94.81, 68.09 95.01 M-1.17 -1.5 C2.85 -1.98, 26.83 -7.74, 25.68 -3.46 C24.53 0.83, -11.54 21.86, -8.08 24.23 C-4.61 26.59, 46.69 7.66, 46.45 10.71 C46.2 13.77, -10.36 40.52, -9.54 42.54 C-8.72 44.57, 50.35 19.43, 51.36 22.86 C52.38 26.28, -14 65.05, -3.45 63.12 C7.1 61.18, 104.19 17.29, 114.68 11.23 C125.17 5.16, 61.59 29.25, 59.48 26.7 C57.37 24.15, 98.48 0.96, 102.02 -4.08 C105.57 -9.12, 77.36 -8.22, 80.74 -3.55 C84.12 1.12, 133.96 11.95, 122.32 23.96 C110.67 35.97, 12.31 64.97, 10.87 68.51 C9.42 72.04, 111.17 43.11, 113.64 45.17 C116.1 47.23, 29.8 76.19, 25.65 80.88 C21.5 85.58, 84.92 71.16, 88.72 73.35 C92.52 75.55, 52.03 90.41, 48.47 94.06 C44.9 97.72, 64.38 95.28, 67.34 95.29" stroke="#1971c2" stroke-width="4" fill="none"></path></g></g><mask></mask><g transform="translate(23.403437263071964 63.443916613602084) rotate(0 32.82623291015625 67.24052947364528)"><text x="0" y="108.21522712164787" font-family="Cascadia, Segoe UI Emoji" font-size="112.06754912274214px" fill="#ffffff" text-anchor="start" style="white-space: pre;" direction="ltr" dominant-baseline="alphabetic">[</text></g><g transform="translate(181.71374231909203 61.77814448607188) rotate(0 32.82623291015625 67.24052947364528)"><text x="0" y="108.21522712164787" font-family="Cascadia, Segoe UI Emoji" font-size="112.06754912274214px" fill="#ffffff" text-anchor="start" style="white-space: pre;" direction="ltr" dominant-baseline="alphabetic">]</text></g></svg>