<svg version="1.1" xmlns="http://www.w3.org/2000/svg" viewBox="0 0 496.6845017040697 247.4545734841781" width="496.6845017040697" height="247.4545734841781">
  <!-- svg-source:excalidraw -->
  
  <defs>
    <style class="style-fonts">
      @font-face {
        font-family: "Virgil";
        src: url("https://excalidraw.com/Virgil.woff2");
      }
      @font-face {
        font-family: "Cascadia";
        src: url("https://excalidraw.com/Cascadia.woff2");
      }
      @font-face {
        font-family: "Assistant";
        src: url("https://excalidraw.com/Assistant-Regular.woff2");
      }
    </style>
    
  </defs>
  <g stroke-linecap="round" transform="translate(10 10) rotate(0 238.34225085203485 113.72728674208905)"><path d="M32 0 C125.17 1.37, 218.73 2.52, 444.68 0 C468.59 2.33, 478.39 7.52, 476.68 32 C476.2 66.12, 477.67 101.37, 476.68 195.45 C479.19 214.61, 464.93 226.6, 444.68 227.45 C282.14 230.04, 115.71 230.48, 32 227.45 C12.15 224.14, -2.78 219.07, 0 195.45 C0.92 140.13, 1.35 86.05, 0 32 C2.44 8.16, 11.25 -0.89, 32 0" stroke="none" stroke-width="0" fill="#1e1e1e"></path><path d="M32 0 C115.56 -2.24, 199.16 -0.77, 444.68 0 M32 0 C140.57 1.95, 249.58 2.14, 444.68 0 M444.68 0 C464.21 0.83, 477.81 9.31, 476.68 32 M444.68 0 C467.75 -0.33, 478.57 10.92, 476.68 32 M476.68 32 C477.69 71.7, 476.49 108.05, 476.68 195.45 M476.68 32 C477.45 74.61, 478.99 117.3, 476.68 195.45 M476.68 195.45 C478.33 215.88, 467.79 229.34, 444.68 227.45 M476.68 195.45 C478.16 218.76, 464.1 225.85, 444.68 227.45 M444.68 227.45 C360.96 225.52, 279.36 225.68, 32 227.45 M444.68 227.45 C339.94 226.14, 236.07 225.62, 32 227.45 M32 227.45 C10.39 229.16, 1.53 216, 0 195.45 M32 227.45 C11.45 226.75, 2.17 214.97, 0 195.45 M0 195.45 C0.86 154.71, -0.79 114.19, 0 32 M0 195.45 C0.69 135.64, 0.21 75.14, 0 32 M0 32 C-0.69 10.41, 12.19 -0.62, 32 0 M0 32 C-1.55 11.39, 9.12 -2.13, 32 0" stroke="#1e1e1e" stroke-width="1" fill="none"></path></g><g transform="translate(365.15866784518187 137.8858804541958) rotate(0 23.28553758540852 -43.90987087534187)" stroke="none"><path fill="#1971c2" d="M -1.88,-38.28 Q -1.88,-38.28 0.93,-42.65 3.75,-47.02 5.95,-50.45 8.15,-53.88 9.69,-56.22 11.24,-58.56 12.01,-59.94 12.77,-61.32 14.90,-62.45 17.03,-63.58 17.68,-62.48 18.34,-61.38 18.52,-59.45 18.71,-57.53 17.94,-54.94 17.17,-52.35 16.41,-50.28 15.64,-48.20 14.97,-46.66 14.29,-45.11 13.35,-43.17 12.42,-41.22 11.91,-39.96 11.40,-38.70 10.97,-37.16 10.54,-35.62 10.21,-34.39 9.87,-33.15 9.37,-32.01 8.86,-30.87 8.34,-29.94 7.81,-29.00 7.56,-28.77 7.31,-28.53 7.01,-28.36 6.70,-28.19 6.37,-28.09 6.03,-28.00 5.69,-27.99 5.34,-27.97 5.00,-28.05 4.66,-28.12 4.35,-28.27 4.04,-28.42 3.77,-28.64 3.50,-28.86 3.30,-29.14 3.09,-29.42 2.96,-29.74 2.82,-30.06 2.77,-30.41 2.72,-30.75 2.75,-31.09 2.78,-31.44 2.89,-31.77 3.00,-32.10 3.19,-32.39 3.38,-32.68 5.52,-30.89 7.66,-29.10 7.42,-28.86 7.17,-28.63 6.87,-28.46 6.57,-28.29 6.24,-28.20 5.91,-28.10 5.57,-28.09 5.23,-28.08 4.89,-28.15 4.56,-28.22 4.25,-28.37 3.94,-28.52 3.68,-28.74 3.42,-28.96 3.21,-29.23 3.01,-29.51 2.88,-29.82 2.75,-30.14 2.70,-30.48 2.64,-30.82 2.67,-31.16 2.70,-31.50 2.81,-31.82 2.92,-32.14 3.11,-32.43 3.29,-32.72 4.73,-36.30 6.17,-39.89 7.39,-42.20 8.60,-44.51 11.17,-48.23 13.73,-51.94 16.97,-56.31 20.21,-60.67 21.99,-63.03 23.77,-65.39 24.66,-66.65 25.55,-67.91 25.93,-68.67 26.32,-69.42 26.47,-69.62 26.61,-69.82 26.81,-69.98 27.00,-70.13 27.22,-70.24 27.44,-70.34 27.69,-70.39 27.93,-70.44 28.17,-70.43 28.42,-70.43 28.66,-70.36 28.90,-70.29 29.11,-70.17 29.32,-70.04 29.50,-69.87 29.68,-69.70 29.81,-69.49 29.95,-69.28 30.02,-69.05 30.10,-68.81 30.12,-68.57 30.14,-68.32 30.10,-68.08 30.06,-67.83 29.97,-67.61 29.87,-67.38 29.69,-65.98 29.51,-64.59 29.04,-62.61 28.56,-60.63 27.09,-57.02 25.63,-53.42 24.39,-49.84 23.16,-46.26 22.00,-42.95 20.85,-39.64 19.95,-36.84 19.05,-34.05 18.51,-32.29 17.97,-30.54 17.84,-28.90 17.71,-27.27 17.43,-26.04 17.15,-24.81 16.77,-23.73 16.40,-22.65 16.27,-21.46 16.15,-20.27 16.16,-19.67 16.17,-19.08 16.08,-18.77 15.99,-18.46 15.83,-18.19 15.68,-17.91 15.46,-17.68 15.24,-17.45 14.97,-17.27 14.70,-17.10 14.39,-17.00 14.09,-16.90 13.77,-16.87 13.45,-16.84 13.14,-16.89 12.82,-16.94 12.53,-17.07 12.23,-17.19 11.98,-17.38 11.72,-17.57 11.52,-17.82 11.31,-18.06 11.18,-18.35 11.04,-18.64 10.97,-18.95 10.91,-19.27 10.92,-19.59 10.93,-19.90 11.36,-21.34 11.79,-22.78 12.94,-24.75 14.09,-26.72 15.83,-29.17 17.57,-31.61 18.40,-33.09 19.24,-34.58 20.25,-35.92 21.26,-37.27 22.89,-39.29 24.52,-41.30 25.79,-43.16 27.07,-45.02 28.21,-46.60 29.35,-48.18 30.40,-49.59 31.45,-51.00 32.48,-52.43 33.52,-53.87 34.48,-54.69 35.43,-55.51 35.66,-55.87 35.88,-56.22 36.16,-56.31 36.44,-56.40 36.73,-56.42 37.02,-56.44 37.31,-56.39 37.59,-56.34 37.86,-56.22 38.13,-56.10 38.36,-55.92 38.59,-55.75 38.77,-55.52 38.95,-55.29 39.08,-55.02 39.20,-54.76 39.25,-54.47 39.31,-54.18 39.29,-53.89 39.28,-53.60 39.19,-53.32 39.11,-53.04 38.96,-52.79 38.81,-52.54 38.60,-52.33 38.40,-52.12 38.15,-51.97 37.90,-51.82 38.47,-53.10 39.03,-54.39 39.05,-53.21 39.07,-52.04 38.33,-50.54 37.60,-49.04 35.81,-46.04 34.03,-43.04 32.87,-40.80 31.71,-38.55 30.39,-35.98 29.08,-33.41 27.91,-31.10 26.75,-28.78 26.14,-27.39 25.54,-26.01 25.51,-25.57 25.48,-25.14 25.35,-24.95 25.22,-24.75 25.05,-24.60 24.88,-24.44 24.68,-24.33 24.48,-24.21 24.25,-24.15 24.03,-24.09 23.80,-24.08 23.57,-24.08 23.34,-24.13 23.11,-24.18 22.91,-24.28 22.70,-24.38 22.52,-24.53 22.34,-24.68 22.21,-24.87 22.07,-25.05 21.98,-25.27 21.89,-25.48 21.86,-25.71 21.83,-25.94 21.85,-26.17 21.87,-26.40 21.95,-26.62 22.02,-26.84 22.26,-28.06 22.49,-29.28 23.30,-31.08 24.10,-32.87 24.80,-34.37 25.50,-35.87 27.70,-38.87 29.90,-41.87 32.63,-44.91 35.35,-47.96 37.10,-49.76 38.86,-51.56 39.97,-52.63 41.09,-53.70 42.59,-54.81 44.08,-55.91 45.62,-54.97 47.16,-54.03 47.10,-52.84 47.05,-51.64 45.83,-48.97 44.62,-46.31 43.47,-44.29 42.32,-42.27 40.85,-39.52 39.38,-36.77 37.76,-33.82 36.13,-30.88 35.04,-28.93 33.95,-26.97 33.67,-25.70 33.40,-24.42 33.28,-24.23 33.17,-24.04 33.01,-23.88 32.86,-23.72 32.67,-23.60 32.48,-23.49 32.27,-23.42 32.06,-23.35 31.83,-23.34 31.61,-23.32 31.39,-23.36 31.17,-23.40 30.97,-23.49 30.77,-23.58 30.59,-23.72 30.42,-23.85 30.28,-24.03 30.14,-24.20 30.05,-24.40 29.96,-24.60 29.91,-24.82 29.87,-25.04 29.88,-25.26 29.90,-25.48 29.96,-25.70 30.03,-25.91 30.75,-27.05 31.47,-28.20 32.16,-29.36 32.85,-30.52 34.47,-32.41 36.09,-34.31 37.07,-35.76 38.05,-37.20 39.09,-38.60 40.12,-40.01 41.53,-41.46 42.95,-42.92 44.77,-42.75 46.59,-42.59 47.74,-40.90 48.89,-39.22 49.00,-37.65 49.11,-36.08 48.77,-32.92 48.44,-29.76 48.35,-28.13 48.26,-26.50 47.89,-24.98 47.53,-23.46 47.48,-23.18 47.43,-22.91 47.32,-22.65 47.21,-22.39 47.05,-22.17 46.88,-21.95 46.66,-21.77 46.45,-21.60 46.19,-21.48 45.94,-21.36 45.67,-21.31 45.40,-21.25 45.12,-21.26 44.84,-21.28 44.57,-21.35 44.30,-21.43 44.06,-21.57 43.82,-21.71 43.62,-21.91 43.42,-22.10 43.27,-22.34 43.12,-22.57 43.04,-22.84 42.95,-23.10 42.93,-23.38 42.91,-23.66 43.39,-22.67 43.87,-21.68 43.61,-21.94 43.34,-22.20 43.17,-22.54 43.01,-22.87 42.96,-23.24 42.91,-23.61 42.98,-23.98 43.04,-24.35 43.23,-24.67 43.41,-25.00 43.69,-25.25 43.97,-25.50 44.31,-25.65 44.65,-25.80 45.03,-25.83 45.40,-25.86 45.76,-25.77 46.13,-25.68 46.44,-25.48 46.76,-25.28 46.99,-24.99 47.23,-24.70 47.36,-24.35 47.49,-24.00 47.50,-23.62 47.51,-23.25 47.40,-22.89 47.29,-22.53 47.07,-22.23 46.85,-21.93 46.55,-21.71 46.25,-21.49 45.89,-21.38 45.53,-21.27 45.16,-21.28 44.79,-21.29 44.43,-21.41 44.08,-21.54 43.79,-21.78 43.50,-22.01 43.30,-22.32 43.09,-22.64 43.00,-23.00 42.91,-23.36 42.94,-23.74 42.97,-24.11 43.12,-24.45 43.27,-24.80 43.52,-25.08 43.76,-25.36 44.09,-25.54 44.41,-25.72 44.78,-25.80 45.15,-25.87 45.52,-25.82 45.89,-25.77 46.71,-24.61 47.53,-23.46 47.48,-23.18 47.43,-22.91 47.32,-22.65 47.21,-22.39 47.05,-22.17 46.88,-21.95 46.66,-21.77 46.45,-21.60 46.19,-21.48 45.94,-21.36 45.67,-21.31 45.40,-21.25 45.12,-21.26 44.84,-21.28 44.57,-21.35 44.30,-21.43 44.06,-21.57 43.82,-21.71 43.62,-21.91 43.42,-22.10 43.27,-22.34 43.12,-22.57 43.04,-22.84 42.95,-23.10 42.93,-23.38 42.91,-23.66 43.32,-25.18 43.73,-26.70 43.79,-28.36 43.84,-30.01 43.56,-33.83 43.27,-37.64 42.28,-36.34 41.29,-35.04 40.25,-33.46 39.21,-31.89 37.89,-30.00 36.57,-28.12 35.83,-27.07 35.10,-26.01 34.25,-25.22 33.40,-24.42 33.28,-24.23 33.17,-24.04 33.01,-23.88 32.86,-23.72 32.67,-23.60 32.48,-23.49 32.27,-23.42 32.06,-23.35 31.83,-23.34 31.61,-23.32 31.39,-23.36 31.17,-23.40 30.97,-23.49 30.77,-23.58 30.59,-23.72 30.42,-23.85 30.28,-24.03 30.14,-24.20 30.05,-24.40 29.96,-24.60 29.91,-24.82 29.87,-25.04 29.88,-25.26 29.90,-25.48 29.96,-25.70 30.03,-25.91 30.06,-26.11 30.09,-26.31 30.67,-27.37 31.25,-28.42 32.27,-30.40 33.29,-32.38 34.80,-35.35 36.31,-38.32 37.65,-41.16 38.99,-43.99 39.88,-45.93 40.78,-47.86 42.07,-49.45 43.37,-51.04 42.27,-50.22 41.17,-49.39 39.53,-47.57 37.90,-45.75 35.39,-42.76 32.89,-39.78 31.00,-36.94 29.11,-34.11 28.40,-32.72 27.70,-31.33 27.02,-29.68 26.34,-28.02 25.91,-26.58 25.48,-25.14 25.35,-24.95 25.22,-24.75 25.05,-24.60 24.88,-24.44 24.68,-24.33 24.48,-24.21 24.25,-24.15 24.03,-24.09 23.80,-24.08 23.57,-24.08 23.34,-24.13 23.11,-24.18 22.91,-24.28 22.70,-24.38 22.52,-24.53 22.34,-24.68 22.21,-24.87 22.07,-25.05 21.98,-25.27 21.89,-25.48 21.86,-25.71 21.83,-25.94 21.85,-26.17 21.87,-26.40 21.95,-26.62 22.02,-26.84 22.17,-27.21 22.31,-27.57 23.04,-28.88 23.76,-30.19 24.81,-32.57 25.87,-34.94 27.02,-37.56 28.18,-40.18 29.19,-42.64 30.20,-45.11 31.68,-48.18 33.17,-51.26 34.09,-52.31 35.01,-53.37 35.44,-54.80 35.88,-56.22 36.16,-56.31 36.44,-56.40 36.73,-56.42 37.02,-56.44 37.31,-56.39 37.59,-56.34 37.86,-56.22 38.13,-56.10 38.36,-55.92 38.59,-55.75 38.77,-55.52 38.95,-55.29 39.08,-55.02 39.20,-54.76 39.25,-54.47 39.31,-54.18 39.29,-53.89 39.28,-53.60 39.19,-53.32 39.11,-53.04 38.96,-52.79 38.81,-52.54 38.60,-52.33 38.40,-52.13 38.15,-51.97 37.90,-51.82 37.27,-51.39 36.63,-50.96 35.45,-49.89 34.27,-48.81 33.21,-47.49 32.14,-46.17 31.06,-44.67 29.98,-43.17 28.75,-41.11 27.53,-39.06 26.03,-36.87 24.52,-34.68 23.64,-33.65 22.76,-32.62 21.88,-31.00 21.00,-29.38 19.61,-27.02 18.22,-24.67 17.19,-21.88 16.17,-19.08 16.08,-18.77 15.99,-18.46 15.83,-18.19 15.68,-17.91 15.46,-17.68 15.24,-17.45 14.97,-17.27 14.70,-17.10 14.39,-17.00 14.09,-16.90 13.77,-16.87 13.45,-16.84 13.14,-16.89 12.82,-16.94 12.53,-17.07 12.23,-17.19 11.98,-17.38 11.72,-17.57 11.52,-17.82 11.31,-18.06 11.18,-18.35 11.04,-18.64 10.97,-18.95 10.91,-19.27 10.92,-19.59 10.93,-19.90 11.16,-21.11 11.39,-22.32 11.70,-23.34 12.01,-24.37 12.72,-25.67 13.43,-26.97 13.71,-28.12 14.00,-29.27 14.34,-30.42 14.69,-31.58 15.26,-33.29 15.82,-35.01 16.60,-37.88 17.38,-40.75 18.36,-44.10 19.33,-47.45 20.36,-51.19 21.39,-54.94 22.86,-59.48 24.32,-64.02 25.38,-65.62 26.44,-67.21 26.38,-68.32 26.32,-69.42 26.47,-69.62 26.61,-69.82 26.81,-69.98 27.00,-70.13 27.22,-70.24 27.44,-70.34 27.68,-70.39 27.93,-70.44 28.17,-70.43 28.42,-70.43 28.66,-70.36 28.90,-70.29 29.11,-70.17 29.32,-70.04 29.50,-69.87 29.68,-69.70 29.81,-69.49 29.95,-69.28 30.02,-69.05 30.10,-68.81 30.12,-68.57 30.14,-68.32 30.10,-68.08 30.06,-67.83 29.97,-67.61 29.87,-67.38 29.13,-66.54 28.40,-65.70 27.43,-64.57 26.46,-63.44 24.79,-61.01 23.12,-58.58 20.06,-54.19 17.01,-49.79 14.81,-46.24 12.60,-42.69 11.73,-40.41 10.86,-38.13 10.00,-35.29 9.14,-32.46 8.40,-30.78 7.66,-29.10 7.42,-28.86 7.17,-28.63 6.87,-28.46 6.57,-28.29 6.24,-28.20 5.91,-28.10 5.57,-28.09 5.23,-28.08 4.90,-28.15 4.56,-28.22 4.25,-28.37 3.94,-28.52 3.68,-28.74 3.42,-28.96 3.21,-29.23 3.01,-29.51 2.88,-29.82 2.75,-30.14 2.70,-30.48 2.64,-30.81 2.67,-31.16 2.70,-31.50 2.81,-31.82 2.92,-32.14 3.11,-32.43 3.29,-32.72 5.55,-30.86 7.81,-29.00 7.56,-28.77 7.31,-28.53 7.01,-28.36 6.70,-28.19 6.37,-28.09 6.04,-28.00 5.69,-27.99 5.34,-27.97 5.00,-28.05 4.66,-28.12 4.35,-28.27 4.04,-28.42 3.77,-28.64 3.50,-28.86 3.30,-29.14 3.09,-29.42 2.96,-29.74 2.82,-30.06 2.77,-30.41 2.72,-30.75 2.75,-31.09 2.78,-31.44 2.89,-31.77 3.00,-32.10 3.19,-32.39 3.38,-32.68 3.76,-33.20 4.14,-33.72 4.96,-34.68 5.78,-35.64 6.15,-36.70 6.52,-37.77 7.16,-39.07 7.79,-40.36 8.41,-41.52 9.02,-42.68 9.81,-44.76 10.59,-46.85 11.23,-48.11 11.87,-49.37 12.38,-51.40 12.88,-53.43 13.27,-55.49 13.67,-57.55 13.80,-59.24 13.93,-60.92 14.88,-60.20 15.82,-59.47 14.94,-58.13 14.06,-56.79 12.63,-54.40 11.21,-52.01 9.16,-48.48 7.11,-44.96 4.49,-40.46 1.88,-35.97 1.71,-35.76 1.55,-35.55 1.34,-35.39 1.13,-35.23 0.88,-35.12 0.64,-35.01 0.38,-34.96 0.11,-34.92 -0.14,-34.94 -0.41,-34.95 -0.66,-35.03 -0.91,-35.12 -1.14,-35.25 -1.37,-35.39 -1.55,-35.58 -1.74,-35.77 -1.88,-36.00 -2.01,-36.23 -2.09,-36.48 -2.17,-36.74 -2.18,-37.00 -2.20,-37.27 -2.15,-37.53 -2.10,-37.79 -1.99,-38.03 -1.88,-38.28 -1.88,-38.28 L -1.88,-38.28 Z"></path></g><g transform="translate(43.22278150376485 59.76930877166916) rotate(0 195.44677734375 33.360964302972334)"><text x="0" y="53.690301925096094" font-family="Cascadia, Segoe UI Emoji" font-size="55.60160717162054px" fill="#ffffff" text-anchor="start" style="white-space: pre;" direction="ltr" dominant-baseline="alphabetic"> F R A S [3]</text></g><g stroke-linecap="round"><g transform="translate(102.7313263612225 140.9762308825261) rotate(0 25.976183398136243 20.509153594148387)"><path d="M0.58 -1.18 C2.71 -1.63, 13.56 -4.96, 12.86 -2.92 C12.16 -0.89, -4.96 10.03, -3.63 11.04 C-2.29 12.05, 21.17 1.71, 20.86 3.15 C20.55 4.59, -5.97 18.54, -5.5 19.66 C-5.03 20.79, 23.3 8.39, 23.69 9.91 C24.08 11.43, -8.06 29.31, -3.16 28.78 C1.73 28.25, 48.06 9.49, 53.05 6.76 C58.04 4.02, 27.87 13.62, 26.78 12.36 C25.69 11.09, 44.73 1.5, 46.51 -0.84 C48.29 -3.17, 36.09 -3.72, 37.45 -1.63 C38.82 0.46, 59.94 6.45, 54.71 11.72 C49.47 16.99, 6.27 28.6, 6.03 29.99 C5.78 31.37, 52.1 18.89, 53.23 20.04 C54.36 21.19, 14.73 34.66, 12.8 36.87 C10.87 39.09, 40.23 32.47, 41.65 33.34 C43.08 34.21, 23.1 40.36, 21.35 42.11 C19.6 43.87, 29.63 43.84, 31.14 43.86 M-0.57 0.82 C1.43 0.49, 12.8 -3.39, 12.11 -2.01 C11.41 -0.63, -6.22 8.12, -4.76 9.09 C-3.29 10.05, 20.76 1.91, 20.91 3.77 C21.05 5.62, -4.06 18.81, -3.9 20.21 C-3.73 21.61, 21.76 10.93, 21.9 12.18 C22.03 13.43, -8.22 28.57, -3.1 27.71 C2.02 26.85, 47.34 9.77, 52.61 7.04 C57.87 4.3, 29.39 12.64, 28.47 11.29 C27.56 9.95, 45.56 1.01, 47.12 -1.02 C48.67 -3.06, 36.18 -3.04, 37.78 -0.91 C39.37 1.21, 61.88 6.74, 56.68 11.7 C51.48 16.67, 7.18 27.54, 6.56 28.88 C5.95 30.22, 51.87 18.49, 53.01 19.75 C54.15 21, 15.67 34.49, 13.41 36.4 C11.15 38.32, 38.35 30.19, 39.44 31.25 C40.53 32.31, 21.5 40.57, 19.95 42.77 C18.4 44.98, 28.66 44.64, 30.16 44.47" stroke="#1971c2" stroke-width="4" fill="none"></path></g></g><mask></mask><g transform="translate(67.72406527059889 129.0089316231176) rotate(0 59.86289287668325 30.649801152861826)"><text x="0" y="49.327023730387" font-family="Cascadia, Segoe UI Emoji" font-size="51.08300192143638px" fill="#ffffff" text-anchor="start" style="white-space: pre;" direction="ltr" dominant-baseline="alphabetic">[  ]</text></g><g transform="translate(211.23311171703097 139.313291616491) rotate(0 106.34176181754128 29.93854832409673)"><text x="0" y="41.96186933105397" font-family="Virgil, Segoe UI Emoji" font-size="47.90167731855476px" fill="#2f9e44" text-anchor="start" style="white-space: pre;" direction="ltr" dominant-baseline="alphabetic">da Sorte</text></g></svg>