<svg version="1.1" xmlns="http://www.w3.org/2000/svg" viewBox="0 0 74 75.64965562968375" width="74"
  height="75.64965562968375">
  <!-- svg-source:excalidraw -->
  <g stroke-linecap="round">
    <g transform="translate(10 37.04550187084172) rotate(0 27 0.5)">
      <path
        d="M0 0 C2.67 -3.5, 15.67 -23.83, 16 -21 C16.33 -18.17, -0.5 18, 2 17 C4.5 16, 29.67 -28.67, 31 -27 C32.33 -25.33, 9 25, 10 27 C11 29, 35.17 -14.17, 37 -15 C38.83 -15.83, 20.67 20.5, 21 22 C21.33 23.5, 37.67 -6.67, 39 -6 C40.33 -5.33, 26.67 28.33, 29 26 C31.33 23.67, 51.17 -20.33, 53 -20 C54.83 -19.67, 39.83 23.5, 40 28 C40.17 32.5, 51.67 10.5, 54 7 M0 0 C2.67 -3.5, 15.67 -23.83, 16 -21 C16.33 -18.17, -0.5 18, 2 17 C4.5 16, 29.67 -28.67, 31 -27 C32.33 -25.33, 9 25, 10 27 C11 29, 35.17 -14.17, 37 -15 C38.83 -15.83, 20.67 20.5, 21 22 C21.33 23.5, 37.67 -6.67, 39 -6 C40.33 -5.33, 26.67 28.33, 29 26 C31.33 23.67, 51.17 -20.33, 53 -20 C54.83 -19.67, 39.83 23.5, 40 28 C40.17 32.5, 51.67 10.5, 54 7"
        stroke="#1971c2" stroke-width="4" fill="none"></path>
    </g>
  </g>
  <mask></mask>
</svg>